<?xml version="1.0" encoding="UTF-8"?><svg id="Layer_1" xmlns="http://www.w3.org/2000/svg" viewBox="0 0 507.31 97.12"><defs><style>.cls-1{fill:#fff;}</style></defs><path class="cls-1" d="m123.85,43.4c-1.09,1.91-2.69,3.43-4.82,4.55-2.12,1.12-4.69,1.68-7.71,1.68h-4.63v11.84h-11.69V24.22h16.32c4.56,0,8.06,1.16,10.5,3.47,2.44,2.32,3.66,5.42,3.66,9.32,0,2.35-.54,4.48-1.63,6.4Zm-10.21-6.4c0-2.28-1.21-3.42-3.63-3.42h-3.32v6.84h3.32c2.42,0,3.63-1.14,3.63-3.42Z"/><path class="cls-1" d="m145.22,33.14c1.72-1.03,3.51-1.55,5.37-1.55v12.48h-3.32c-2.21,0-3.83.39-4.87,1.16-1.04.77-1.55,2.14-1.55,4.11v12.16h-11.69v-29.69h11.69v5.47c1.19-1.72,2.65-3.1,4.37-4.13Z"/><path class="cls-1" d="m159.8,60.01c-2.39-1.23-4.26-2.99-5.61-5.29-1.35-2.3-2.03-4.99-2.03-8.08s.68-5.78,2.03-8.08c1.35-2.3,3.22-4.06,5.61-5.29,2.39-1.23,5.07-1.84,8.05-1.84s5.67.61,8.05,1.84c2.39,1.23,4.25,2.99,5.61,5.29,1.35,2.3,2.03,4.99,2.03,8.08s-.68,5.78-2.03,8.08c-1.35,2.3-3.22,4.06-5.61,5.29-2.39,1.23-5.07,1.84-8.05,1.84s-5.67-.61-8.05-1.84Zm10.79-9.55c.74-.86,1.1-2.13,1.1-3.82s-.37-2.96-1.1-3.82c-.74-.86-1.65-1.29-2.74-1.29s-2,.43-2.74,1.29c-.74.86-1.11,2.13-1.11,3.82s.36,2.96,1.08,3.82c.72.86,1.64,1.29,2.76,1.29s2-.43,2.74-1.29Z"/><path class="cls-1" d="m235.68,35.01c2.09,2.28,3.13,5.37,3.13,9.26v17.21h-11.63v-15.74c0-1.26-.38-2.25-1.13-2.97-.76-.72-1.76-1.08-3.03-1.08s-2.32.36-3.05,1.08c-.74.72-1.11,1.71-1.11,2.97v15.74h-11.63v-15.74c0-1.26-.38-2.25-1.13-2.97-.75-.72-1.76-1.08-3.03-1.08s-2.32.36-3.05,1.08-1.11,1.71-1.11,2.97v15.74h-11.69v-29.69h11.69v4c.84-1.26,1.99-2.28,3.45-3.05,1.46-.77,3.17-1.16,5.13-1.16,2.14,0,4.03.47,5.68,1.4,1.65.93,2.96,2.24,3.95,3.92,1.09-1.54,2.47-2.82,4.16-3.82,1.68-1,3.54-1.5,5.58-1.5,3.79,0,6.73,1.14,8.82,3.42Z"/><path class="cls-1" d="m258.74,32.61c1.39-.79,3.04-1.18,4.97-1.18,2.32,0,4.4.61,6.26,1.82,1.86,1.21,3.32,2.97,4.4,5.26,1.07,2.3,1.61,5.01,1.61,8.13s-.54,5.83-1.61,8.13c-1.07,2.3-2.54,4.05-4.4,5.26-1.86,1.21-3.95,1.82-6.26,1.82-1.93,0-3.59-.4-4.97-1.18-1.39-.79-2.45-1.87-3.18-3.24v18.27h-11.69V31.8h11.69v4.05c.74-1.37,1.8-2.45,3.18-3.24Zm4.18,10.34c-.81-.88-1.84-1.32-3.11-1.32s-2.3.44-3.11,1.32c-.81.88-1.21,2.11-1.21,3.68s.4,2.81,1.21,3.68c.81.88,1.84,1.32,3.11,1.32s2.3-.44,3.11-1.32c.81-.88,1.21-2.11,1.21-3.68s-.4-2.81-1.21-3.68Z"/><path class="cls-1" d="m298.13,51.54v9.95h-4.42c-8.14,0-12.21-4.05-12.21-12.16v-7.79h-3.68v-9.74h3.68v-7.16h11.69v7.16h4.84v9.74h-4.84v8c0,.7.17,1.21.5,1.53.33.32.89.47,1.66.47h2.79Z"/><path class="cls-1" d="m304.66,33.45c1.61-2.86,3.82-5.1,6.61-6.71,2.79-1.61,5.89-2.42,9.29-2.42,4,0,7.49.97,10.48,2.9,2.98,1.93,5.16,4.67,6.53,8.21h-5.74c-1.02-2.21-2.48-3.91-4.4-5.11-1.91-1.19-4.2-1.79-6.87-1.79s-4.86.6-6.9,1.79c-2.04,1.19-3.63,2.89-4.79,5.08-1.16,2.19-1.74,4.76-1.74,7.71s.58,5.47,1.74,7.66c1.16,2.19,2.75,3.89,4.79,5.08,2.04,1.19,4.33,1.79,6.9,1.79s4.96-.59,6.87-1.76c1.91-1.18,3.38-2.87,4.4-5.08h5.74c-1.37,3.51-3.54,6.22-6.53,8.13-2.98,1.91-6.47,2.87-10.48,2.87-3.4,0-6.5-.8-9.29-2.4-2.79-1.6-4.99-3.82-6.61-6.66-1.61-2.84-2.42-6.05-2.42-9.63s.81-6.8,2.42-9.66Z"/><path class="cls-1" d="m364.88,33.51c1.75.93,3.13,2.32,4.13,4.18,1,1.86,1.5,4.12,1.5,6.79v17h-4.74v-16.32c0-2.88-.72-5.08-2.16-6.61-1.44-1.53-3.4-2.29-5.9-2.29s-4.54.79-6.03,2.37c-1.49,1.58-2.24,3.88-2.24,6.9v15.95h-4.79V22.53h4.79v14.21c.95-1.47,2.25-2.61,3.92-3.42,1.67-.81,3.53-1.21,5.61-1.21,2.18,0,4.14.47,5.9,1.4Z"/><path class="cls-1" d="m378.35,39.19c1.19-2.23,2.83-3.96,4.92-5.18,2.09-1.23,4.41-1.84,6.97-1.84s4.72.54,6.58,1.63c1.86,1.09,3.25,2.46,4.16,4.11v-5.26h4.84v28.85h-4.84v-5.37c-.95,1.68-2.36,3.08-4.24,4.18-1.88,1.11-4.06,1.66-6.55,1.66s-4.88-.63-6.95-1.9c-2.07-1.26-3.7-3.03-4.9-5.32-1.19-2.28-1.79-4.88-1.79-7.79s.6-5.54,1.79-7.76Zm21.32,2.13c-.88-1.61-2.06-2.85-3.55-3.71-1.49-.86-3.13-1.29-4.92-1.29s-3.42.42-4.9,1.26c-1.47.84-2.65,2.07-3.53,3.68-.88,1.61-1.32,3.51-1.32,5.69s.44,4.13,1.32,5.76c.88,1.63,2.05,2.88,3.53,3.74,1.47.86,3.11,1.29,4.9,1.29s3.43-.43,4.92-1.29c1.49-.86,2.68-2.11,3.55-3.74s1.32-3.53,1.32-5.71-.44-4.07-1.32-5.69Z"/><path class="cls-1" d="m414.09,27.01c-.63-.63-.95-1.4-.95-2.32s.32-1.68.95-2.32c.63-.63,1.4-.95,2.32-.95s1.62.32,2.24.95c.61.63.92,1.4.92,2.32s-.31,1.68-.92,2.32-1.36.95-2.24.95-1.68-.32-2.32-.95Zm4.63,5.63v28.85h-4.79v-28.85h4.79Z"/><path class="cls-1" d="m449.46,35.3c2.17,2.12,3.26,5.18,3.26,9.19v17h-4.74v-16.32c0-2.88-.72-5.08-2.16-6.61-1.44-1.53-3.4-2.29-5.9-2.29s-4.54.79-6.03,2.37c-1.49,1.58-2.24,3.88-2.24,6.9v15.95h-4.79v-28.85h4.79v4.11c.95-1.47,2.24-2.61,3.87-3.42,1.63-.81,3.43-1.21,5.4-1.21,3.51,0,6.35,1.06,8.53,3.18Z"/><path class="cls-1" d="m486.73,48.85h-23.06c.18,2.84,1.15,5.06,2.92,6.66,1.77,1.6,3.92,2.4,6.45,2.4,2.07,0,3.8-.48,5.18-1.45,1.39-.96,2.36-2.25,2.92-3.87h5.16c-.77,2.77-2.32,5.03-4.63,6.76-2.32,1.74-5.19,2.61-8.63,2.61-2.74,0-5.18-.61-7.34-1.84-2.16-1.23-3.85-2.97-5.08-5.24-1.23-2.26-1.84-4.89-1.84-7.87s.6-5.6,1.79-7.84c1.19-2.25,2.87-3.97,5.03-5.18,2.16-1.21,4.64-1.82,7.45-1.82s5.16.6,7.26,1.79c2.11,1.19,3.73,2.83,4.87,4.92,1.14,2.09,1.71,4.45,1.71,7.08,0,.91-.05,1.88-.16,2.9Zm-6-8.61c-.81-1.32-1.9-2.32-3.29-3-1.39-.68-2.92-1.03-4.61-1.03-2.42,0-4.48.77-6.18,2.32-1.7,1.54-2.68,3.68-2.92,6.42h18.21c0-1.82-.4-3.4-1.21-4.71Z"/><path class="cls-1" d="m501.6,33.48c1.56-.91,3.46-1.37,5.71-1.37v4.95h-1.26c-5.37,0-8.05,2.91-8.05,8.74v15.69h-4.79v-28.85h4.79v4.68c.84-1.65,2.04-2.93,3.61-3.84Z"/><path class="cls-1" d="m56.43,39.02c-1.36,0-2.66.54-3.62,1.5h-.01s-11.59,11.61-11.59,11.61c-2.14,2.14-5.62,2.14-7.76,0l-11.59-11.59c-2.14-2.14-2.14-5.62,0-7.76l11.59-11.59c2.14-2.14,5.62-2.14,7.76,0l11.59,11.59h.01c.96.98,2.26,1.52,3.62,1.52h15.9c.84,0,1.52-.72,1.43-1.56C71.8,14.34,56.24,0,37.32,0h0C17.08,0,.67,16.41.67,36.65h0c0,20.24,16.41,36.65,36.65,36.65h.04c18.91,0,34.47-14.34,36.4-32.74.09-.84-.59-1.56-1.43-1.56h-15.91Z"/><circle class="cls-1" cx="10.98" cy="86.14" r="10.98"/></svg>